<?xml version="1.0" encoding="UTF-8" standalone="no"?>
<!-- Created with Inkscape (http://www.inkscape.org/) -->

<svg
   width="51.455059mm"
   height="54.207512mm"
   viewBox="0 0 51.455058 54.207512"
   version="1.1"
   id="svg1"
   xml:space="preserve"
   inkscape:version="1.4.2 (ebf0e940, 2025-05-08)"
   sodipodi:docname="metriore_logo_only.svg"
   xmlns:inkscape="http://www.inkscape.org/namespaces/inkscape"
   xmlns:sodipodi="http://sodipodi.sourceforge.net/DTD/sodipodi-0.dtd"
   xmlns:xlink="http://www.w3.org/1999/xlink"
   xmlns="http://www.w3.org/2000/svg"
   xmlns:svg="http://www.w3.org/2000/svg"><sodipodi:namedview
     id="namedview1"
     pagecolor="#505050"
     bordercolor="#eeeeee"
     borderopacity="1"
     inkscape:showpageshadow="0"
     inkscape:pageopacity="0"
     inkscape:pagecheckerboard="0"
     inkscape:deskcolor="#505050"
     inkscape:document-units="mm"
     inkscape:zoom="0.83426393"
     inkscape:cx="115.0715"
     inkscape:cy="28.767874"
     inkscape:window-width="1920"
     inkscape:window-height="1027"
     inkscape:window-x="0"
     inkscape:window-y="25"
     inkscape:window-maximized="0"
     inkscape:current-layer="svg1" /><defs
     id="defs1"><linearGradient
       id="linearGradient17"
       inkscape:collect="always"><stop
         style="stop-color:#4de1b9;stop-opacity:1;"
         offset="0"
         id="stop17" /><stop
         style="stop-color:#1d5f4f;stop-opacity:1;"
         offset="1"
         id="stop18" /></linearGradient><linearGradient
       id="linearGradient15"
       inkscape:collect="always"><stop
         style="stop-color:#4de1b9;stop-opacity:1;"
         offset="0.58049887"
         id="stop15" /><stop
         style="stop-color:#37af91;stop-opacity:1;"
         offset="1"
         id="stop16" /></linearGradient><inkscape:path-effect
       effect="offset"
       id="path-effect2"
       is_visible="true"
       lpeversion="1.3"
       linejoin_type="miter"
       unit="mm"
       offset="1"
       miter_limit="4"
       attempt_force_join="false"
       update_on_knot_move="true" /><radialGradient
       inkscape:collect="always"
       xlink:href="#linearGradient17"
       id="radialGradient18"
       cx="14.808986"
       cy="135.95338"
       fx="14.808986"
       fy="135.95338"
       r="9.9983559"
       gradientTransform="translate(-5.6914497,-99.730806)"
       gradientUnits="userSpaceOnUse" /><radialGradient
       inkscape:collect="always"
       xlink:href="#linearGradient15"
       id="radialGradient19"
       cx="10.431177"
       cy="145.66507"
       fx="10.431177"
       fy="145.66507"
       r="25.72753"
       gradientTransform="matrix(1,0,0,1.0534924,-5.6914497,-106.5155)"
       gradientUnits="userSpaceOnUse" /></defs><g
     inkscape:label="Layer 1"
     inkscape:groupmode="layer"
     id="layer1"
     transform="translate(-5.6914497,-99.730819)" /><path
     id="path2"
     style="fill:url(#radialGradient18);stroke-width:0.264583"
     d="m 16.30514,27.949241 a 9.9984245,9.9984245 0 0 0 -9.9983559,9.99836 9.9984245,9.9984245 0 0 0 9.9983559,9.99835 9.9984245,9.9984245 0 0 0 9.998356,-9.99835 9.9984245,9.9984245 0 0 0 -0.649572,-3.54449 c -4.960947,5.3245 -7.126942,7.48966 -8.794812,9.00669 -2.401159,2.184 -5.444837,1.10421 -6.435267,-1.125 -0.241499,-0.54355 -0.35762,-1.15218 -0.295072,-1.78129 0.0791,-0.79555 0.432702,-1.5629 1.082104,-2.23242 1.709662,-1.76261 4.597235,-4.65915 9.877951,-9.10332 a 9.9984245,9.9984245 0 0 0 -4.783688,-1.21853 z" /><path
     style="fill:#ffba49;fill-opacity:1"
     d="m 16.103913,42.669161 c 2.036366,-1.85219 4.851047,-4.70835 12.880159,-13.42572 2.613616,-2.83765 7.310602,-7.89781 10.437746,-11.24479 C 49.104063,7.6357607 51.74969,4.7626107 51.338135,5.0575307 48.17013,7.3277807 37.502642,16.172381 28.871586,23.684951 c -3.26155,2.83889 -6.476238,5.62077 -7.14375,6.18195 -5.294153,4.45082 -8.176328,7.34289 -9.880596,9.09994 -2.5021139,2.57961 1.268254,6.42047 4.256673,3.70232 z"
     id="path4" /><path
     style="fill:url(#radialGradient19)"
     d="m 20.211403,53.698141 c 4.245254,-1.08669 8.054856,-3.921 10.399619,-7.73723 5.053814,-8.22537 7.073979,-11.20299 15.201369,-22.40601 2.744823,-3.78354 5.24049,-7.23635 5.545926,-7.67291 1.032985,-1.47646 -6.399612,6.30653 -13.075759,13.69218 -7.365964,8.14878 -7.317339,8.11168 -7.317339,5.58265 0,-1.74779 0.0152,-1.78414 2.275229,-5.44179 2.891539,-4.67968 2.849681,-4.67814 -1.891025,0.0692 l -3.956079,3.96165 -0.132291,3.76804 c -0.466327,13.28229 -17.226143,16.08789 -21.4481079,3.59042 -2.801036,-8.29137 3.462072,-15.05571 13.2092189,-14.26634 l 3.267998,0.26465 4.932841,-4.18823 c 8.657562,-7.35071 8.666367,-7.3699 1.259403,-2.74466 -3.938022,2.45907 -3.938022,2.45907 -8.268229,2.45907 -5.417943,0 -5.41654,0.19376 -0.03073,-4.2428 C 31.715245,8.8866907 42.816434,-0.53745723 41.813133,0.02389267 40.871526,0.55073067 29.376425,8.2910807 25.087871,11.286031 c -2.577696,1.80015 -6.149571,4.2765 -7.937499,5.503 -10.6363859,7.29642 -12.5611699,8.87553 -14.5357259,11.92522 -7.962573,12.29813 3.511697,28.58929 17.5967549,24.98386 z"
     id="path3" /></svg>
