<?xml version="1.0" encoding="UTF-8" standalone="no"?>
<!-- Created with Inkscape (http://www.inkscape.org/) -->

<svg
   width="196.0899mm"
   height="54.207512mm"
   viewBox="0 0 196.0899 54.207512"
   version="1.1"
   id="svg1"
   xml:space="preserve"
   inkscape:version="1.4.2 (ebf0e940, 2025-05-08)"
   sodipodi:docname="metriore_logo_full.svg"
   xmlns:inkscape="http://www.inkscape.org/namespaces/inkscape"
   xmlns:sodipodi="http://sodipodi.sourceforge.net/DTD/sodipodi-0.dtd"
   xmlns:xlink="http://www.w3.org/1999/xlink"
   xmlns="http://www.w3.org/2000/svg"
   xmlns:svg="http://www.w3.org/2000/svg"><sodipodi:namedview
     id="namedview1"
     pagecolor="#505050"
     bordercolor="#eeeeee"
     borderopacity="1"
     inkscape:showpageshadow="0"
     inkscape:pageopacity="0"
     inkscape:pagecheckerboard="0"
     inkscape:deskcolor="#505050"
     inkscape:document-units="mm"
     inkscape:zoom="0.83426393"
     inkscape:cx="115.67083"
     inkscape:cy="28.767874"
     inkscape:window-width="1920"
     inkscape:window-height="1027"
     inkscape:window-x="0"
     inkscape:window-y="25"
     inkscape:window-maximized="0"
     inkscape:current-layer="svg1" /><defs
     id="defs1"><linearGradient
       id="linearGradient17"
       inkscape:collect="always"><stop
         style="stop-color:#4de1b9;stop-opacity:1;"
         offset="0"
         id="stop17" /><stop
         style="stop-color:#1d5f4f;stop-opacity:1;"
         offset="1"
         id="stop18" /></linearGradient><linearGradient
       id="linearGradient15"
       inkscape:collect="always"><stop
         style="stop-color:#4de1b9;stop-opacity:1;"
         offset="0.58049887"
         id="stop15" /><stop
         style="stop-color:#37af91;stop-opacity:1;"
         offset="1"
         id="stop16" /></linearGradient><inkscape:path-effect
       effect="offset"
       id="path-effect2"
       is_visible="true"
       lpeversion="1.3"
       linejoin_type="miter"
       unit="mm"
       offset="1"
       miter_limit="4"
       attempt_force_join="false"
       update_on_knot_move="true" /><radialGradient
       inkscape:collect="always"
       xlink:href="#linearGradient17"
       id="radialGradient18"
       cx="14.808986"
       cy="135.95338"
       fx="14.808986"
       fy="135.95338"
       r="9.9983559"
       gradientTransform="translate(-5.6914496,-99.730806)"
       gradientUnits="userSpaceOnUse" /><radialGradient
       inkscape:collect="always"
       xlink:href="#linearGradient15"
       id="radialGradient19"
       cx="10.431177"
       cy="145.66507"
       fx="10.431177"
       fy="145.66507"
       r="25.72753"
       gradientTransform="matrix(1,0,0,1.0534924,-5.6914496,-106.5155)"
       gradientUnits="userSpaceOnUse" /></defs><path
     id="path13"
     style="fill:#f5f6fa;fill-opacity:1"
     d="m 164.31523,24.176861 v 9.50071 c 0,10.62934 -0.13619,9.90373 1.84175,9.79889 1.46571,-0.0777 1.46536,-0.078 1.53944,-3.29231 l 0.0744,-3.21427 1.77302,0.0393 c 2.00147,0.0444 1.49937,-0.40777 4.89066,4.4049 1.3983,1.98437 1.39829,1.9847 3.18016,2.06293 2.26678,0.0995 2.2696,0.13452 -0.31677,-3.73156 -2.0402,-3.04967 -2.07511,-3.12962 -1.48002,-3.35587 3.09062,-1.17505 4.42069,-6.39605 2.37195,-9.31106 -1.68972,-2.40417 -2.65053,-2.71788 -8.62738,-2.81584 z m 3.43958,3.47886 2.84427,0.004 c 3.94707,0.005 5.44471,1.08249 4.97644,3.5786 -0.37778,2.01371 -1.02871,2.36007 -4.62246,2.45928 l -3.19825,0.0879 v -3.06493 z" /><path
     id="path10"
     style="fill:#f5f6fa;fill-opacity:1"
     d="m 115.63189,24.175831 v 9.67744 9.67745 h 1.57924 c 1.57935,0 1.57935,-1e-5 1.65364,-3.24115 0.0743,-3.24115 0.0744,-3.24093 1.66192,-3.30935 1.93524,-0.0834 1.83726,-0.15099 3.56929,2.44946 2.75376,4.13449 2.7156,4.10104 4.65501,4.10104 2.1548,0 2.15885,0.0414 -0.39016,-3.76876 -2.07891,-3.10749 -2.07869,-3.10749 -0.99942,-3.70417 3.90707,-2.16004 3.78808,-8.43719 -0.20671,-10.90889 -1.29298,-0.80001 -1.29289,-0.80039 -6.40787,-0.88677 z m 3.175,3.47989 h 3.06907 c 3.89833,0 5.04007,0.76846 4.80332,3.23236 -0.22709,2.36346 -1.05719,2.85306 -4.83381,2.85306 h -3.03858 v -3.04271 z" /><path
     id="path5"
     style="fill:#f5f6fa;fill-opacity:1"
     d="m 150.69177,23.894711 c -4.15804,0.15 -8.13536,2.89211 -9.28832,7.45846 -2.03637,8.06509 6.46193,15.11011 13.86065,11.49025 6.21372,-3.04009 7.53758,-11.52325 2.53628,-16.25327 -2.05368,-1.94228 -4.61379,-2.78544 -7.10861,-2.69544 z m 0.262,3.50831 c 8.0148,0 8.48209,12.29772 0.48782,12.83849 -0.97781,0.0661 -1.94925,-0.0441 -2.64325,-0.30024 -6.51546,-2.40483 -4.77348,-12.53825 2.15543,-12.53825 z" /><g
     inkscape:label="Layer 1"
     inkscape:groupmode="layer"
     id="layer1"
     transform="translate(-5.6914496,-99.730819)" /><path
     id="path2"
     style="fill:url(#radialGradient18);stroke-width:0.264583"
     d="m 16.30514,27.949241 a 9.9984245,9.9984245 0 0 0 -9.9983556,9.99836 9.9984245,9.9984245 0 0 0 9.9983556,9.99835 9.9984245,9.9984245 0 0 0 9.998356,-9.99835 9.9984245,9.9984245 0 0 0 -0.649572,-3.54449 c -4.960947,5.3245 -7.126942,7.48966 -8.794812,9.00669 -2.401159,2.184 -5.444837,1.10421 -6.435267,-1.125 -0.241499,-0.54355 -0.35762,-1.15218 -0.295072,-1.78129 0.0791,-0.79555 0.432702,-1.5629 1.082104,-2.23242 1.709662,-1.76261 4.597235,-4.65915 9.877951,-9.10332 a 9.9984245,9.9984245 0 0 0 -4.783688,-1.21853 z" /><path
     style="fill:#f5f6fa;fill-opacity:1"
     d="m 196.0114,41.601081 0.0785,-1.79758 -4.77517,0.0778 -4.77517,0.0778 3.2e-4,-2.30707 3.1e-4,-2.30706 4.29948,0.0199 c 2.99035,0.0138 4.29142,-0.0692 4.27302,-0.27262 -0.0146,-0.16088 -0.0443,-0.88782 -0.0661,-1.61542 -0.0397,-1.32292 -0.0397,-1.32292 -4.27303,-1.32292 h -4.23333 v -2.24896 -2.24896 h 4.7625 4.7625 v -1.71979 -1.71979 h -5.16787 c -8.03613,0 -7.48662,-0.6982 -7.55608,9.60072 -0.07,10.38453 -0.60792,9.70002 7.56458,9.62668 l 5.02708,-0.0451 z"
     id="path15" /><path
     style="fill:#f5f6fa;fill-opacity:1"
     d="m 137.64191,34.667401 c 0.0273,-4.87495 0.0571,-9.19096 0.0661,-9.59114 0.0161,-0.70979 -0.024,-0.72954 -1.63711,-0.80638 l -1.65364,-0.0788 v 9.66992 9.66991 h 1.5875 1.5875 z"
     id="path12" /><path
     style="fill:#f5f6fa;fill-opacity:1"
     d="m 106.83842,35.527301 0.0701,-7.87136 h 2.77418 c 2.77419,0 2.77419,0 2.77419,-1.71979 v -1.71979 h -7.27604 -7.27604 v 1.71979 c 0,1.71979 0,1.71979 2.77812,1.71979 h 2.77813 v 7.95013 7.95012 l 1.65365,-0.0788 1.65364,-0.0788 z"
     id="path9" /><path
     style="fill:#f5f6fa;fill-opacity:1"
     d="m 94.86209,41.678861 v -1.71979 l -4.762499,-0.0304 -4.7625,-0.0304 v -2.21858 -2.21859 l 4.233333,-0.0109 4.233335,-0.0109 0.0788,-1.64277 0.0788,-1.64277 H 89.58311 85.20486 v -2.24896 -2.24896 h 4.762499 4.762501 v -1.71979 -1.71979 h -5.279218 c -7.93398,0 -7.420782,-0.67204 -7.420782,9.71757 0,10.17688 -0.452018,9.61584 7.672916,9.52341 l 5.159374,-0.0587 z"
     id="path8" /><path
     style="fill:#f5f6fa;fill-opacity:1"
     d="m 61.718563,36.717921 0.07061,-6.81302 2.910416,4.81822 c 3.446159,5.70515 2.790527,5.67054 6.12603,0.32339 1.491686,-2.39132 2.829922,-4.52645 2.973858,-4.74473 0.176234,-0.26727 0.266783,1.83245 0.277261,6.42935 l 0.01556,6.82622 1.521354,-0.0794 1.521354,-0.0794 0.06945,-9.59115 0.06945,-9.59114 -1.789238,0.006 c -1.789238,0.006 -1.789238,0.006 -4.673808,4.76383 -2.494216,4.11392 -2.926641,4.69492 -3.195454,4.2934 -0.170987,-0.25539 -1.489297,-2.39912 -2.929579,-4.76383 -2.618695,-4.29948 -2.618695,-4.29948 -4.411316,-4.29948 h -1.792622 v 9.65729 9.65729 h 1.583033 1.583033 z"
     id="path7" /><path
     style="fill:#ffba49;fill-opacity:1"
     d="m 16.103913,42.669161 c 2.036366,-1.85219 4.851047,-4.70835 12.880159,-13.42572 2.613616,-2.83765 7.310602,-7.89781 10.437746,-11.24479 C 49.104063,7.6357607 51.74969,4.7626107 51.338135,5.0575307 48.17013,7.3277807 37.502642,16.172381 28.871586,23.684951 c -3.26155,2.83889 -6.476238,5.62077 -7.14375,6.18195 -5.294153,4.45082 -8.176328,7.34289 -9.880596,9.09994 -2.5021136,2.57961 1.268254,6.42047 4.256673,3.70232 z"
     id="path4" /><path
     style="fill:url(#radialGradient19)"
     d="m 20.211403,53.698141 c 4.245254,-1.08669 8.054856,-3.921 10.399619,-7.73723 5.053814,-8.22537 7.073979,-11.20299 15.201369,-22.40601 2.744823,-3.78354 5.24049,-7.23635 5.545926,-7.67291 1.032985,-1.47646 -6.399612,6.30653 -13.075759,13.69218 -7.365964,8.14878 -7.317339,8.11168 -7.317339,5.58265 0,-1.74779 0.0152,-1.78414 2.275229,-5.44179 2.891539,-4.67968 2.849681,-4.67814 -1.891025,0.0692 l -3.956079,3.96165 -0.132291,3.76804 c -0.466327,13.28229 -17.226143,16.08789 -21.4481076,3.59042 -2.8010357,-8.29137 3.462072,-15.05571 13.2092186,-14.26634 l 3.267998,0.26465 4.932841,-4.18823 c 8.657562,-7.35071 8.666367,-7.3699 1.259403,-2.74466 -3.938022,2.45907 -3.938022,2.45907 -8.268229,2.45907 -5.417943,0 -5.41654,0.19376 -0.03073,-4.2428 C 31.715245,8.8866907 42.816434,-0.53745732 41.813133,0.02389268 40.871526,0.55073068 29.376425,8.2910807 25.087871,11.286031 c -2.577696,1.80015 -6.149571,4.2765 -7.937499,5.503 -10.6363856,7.29642 -12.5611696,8.87553 -14.5357261,11.92522 -7.9625727,12.29813 3.5116975,28.58929 17.5967551,24.98386 z"
     id="path3" /></svg>
